<mxfile host="app.diagrams.net" agent="Mozilla/5.0 (Windows NT 10.0; Win64; x64) AppleWebKit/537.36 (KHTML, like Gecko) Chrome/128.0.0.0 Safari/537.36 Edg/128.0.0.0" version="24.7.14">
  <diagram name="Page-1" id="abaU5teWBHSIh3knwFKt">
    <mxGraphModel dx="2911" dy="2319" grid="1" gridSize="10" guides="1" tooltips="1" connect="1" arrows="1" fold="1" page="1" pageScale="1" pageWidth="827" pageHeight="1169" math="0" shadow="0">
      <root>
        <mxCell id="0" />
        <mxCell id="1" parent="0" />
        <mxCell id="ytxkbaWUz_GBkNSJb9Mm-1" value="" style="whiteSpace=wrap;html=1;aspect=fixed;horizontal=1;movable=1;resizable=1;rotatable=1;deletable=1;editable=1;locked=0;connectable=1;" parent="1" vertex="1">
          <mxGeometry x="70" y="-250" width="960" height="960" as="geometry" />
        </mxCell>
        <mxCell id="ytxkbaWUz_GBkNSJb9Mm-2" value="Prix Goncourt 2024" style="rounded=0;whiteSpace=wrap;html=1;" parent="1" vertex="1">
          <mxGeometry x="90" y="-215" width="190" height="40" as="geometry" />
        </mxCell>
        <mxCell id="ytxkbaWUz_GBkNSJb9Mm-3" value="Utilisateurs" style="shape=umlActor;verticalLabelPosition=bottom;verticalAlign=top;html=1;outlineConnect=0;fillColor=#f8cecc;strokeColor=#b85450;" parent="1" vertex="1">
          <mxGeometry x="10" y="210" width="30" height="60" as="geometry" />
        </mxCell>
        <mxCell id="ytxkbaWUz_GBkNSJb9Mm-4" value="Président du jury&amp;nbsp;" style="shape=umlActor;verticalLabelPosition=bottom;verticalAlign=top;html=1;outlineConnect=0;fillColor=#dae8fc;strokeColor=#6c8ebf;align=center;" parent="1" vertex="1">
          <mxGeometry x="10" y="400" width="30" height="60" as="geometry" />
        </mxCell>
        <mxCell id="ytxkbaWUz_GBkNSJb9Mm-5" value="Membre du jury" style="shape=umlActor;verticalLabelPosition=bottom;verticalAlign=top;html=1;outlineConnect=0;fillColor=#d5e8d4;strokeColor=#82b366;" parent="1" vertex="1">
          <mxGeometry x="10" y="570" width="30" height="60" as="geometry" />
        </mxCell>
        <mxCell id="ytxkbaWUz_GBkNSJb9Mm-7" value="Afficher les livres" style="ellipse;whiteSpace=wrap;html=1;fillColor=#f5f5f5;strokeColor=#666666;fontColor=#333333;" parent="1" vertex="1">
          <mxGeometry x="430" y="-130" width="120" height="80" as="geometry" />
        </mxCell>
        <mxCell id="ytxkbaWUz_GBkNSJb9Mm-12" value="S&#39;identifier" style="ellipse;whiteSpace=wrap;html=1;fillColor=#d5e8d4;strokeColor=#82b366;" parent="1" vertex="1">
          <mxGeometry x="362" y="570" width="120" height="80" as="geometry" />
        </mxCell>
        <mxCell id="ytxkbaWUz_GBkNSJb9Mm-16" value="" style="endArrow=none;html=1;rounded=0;fillColor=#f8cecc;strokeColor=#b85450;" parent="1" target="ytxkbaWUz_GBkNSJb9Mm-7" edge="1">
          <mxGeometry width="50" height="50" relative="1" as="geometry">
            <mxPoint x="50" y="250" as="sourcePoint" />
            <mxPoint x="430" y="280" as="targetPoint" />
          </mxGeometry>
        </mxCell>
        <mxCell id="ytxkbaWUz_GBkNSJb9Mm-18" value="" style="endArrow=none;html=1;rounded=0;fillColor=#d5e8d4;strokeColor=#82b366;" parent="1" source="ytxkbaWUz_GBkNSJb9Mm-12" edge="1">
          <mxGeometry width="50" height="50" relative="1" as="geometry">
            <mxPoint x="380" y="410" as="sourcePoint" />
            <mxPoint x="60" y="610" as="targetPoint" />
          </mxGeometry>
        </mxCell>
        <mxCell id="ytxkbaWUz_GBkNSJb9Mm-22" value="Voter pour les livres des 2em et 3eme sélections et le lauréat" style="ellipse;whiteSpace=wrap;html=1;fillColor=#d5e8d4;strokeColor=#82b366;" parent="1" vertex="1">
          <mxGeometry x="330" y="430" width="136" height="100" as="geometry" />
        </mxCell>
        <mxCell id="ytxkbaWUz_GBkNSJb9Mm-24" value="" style="endArrow=none;html=1;rounded=0;entryX=0;entryY=1;entryDx=0;entryDy=0;fillColor=#d5e8d4;strokeColor=#82b366;" parent="1" target="ytxkbaWUz_GBkNSJb9Mm-22" edge="1">
          <mxGeometry width="50" height="50" relative="1" as="geometry">
            <mxPoint x="60" y="610" as="sourcePoint" />
            <mxPoint x="430" y="400" as="targetPoint" />
          </mxGeometry>
        </mxCell>
        <mxCell id="tsSxHWKioVlDDUs3cD3j-3" value="_ titre et auteur" style="shape=note;whiteSpace=wrap;html=1;backgroundOutline=1;darkOpacity=0.05;fillColor=#e1d5e7;strokeColor=#9673a6;align=left;" parent="1" vertex="1">
          <mxGeometry x="210" y="-90" width="190" height="30" as="geometry" />
        </mxCell>
        <mxCell id="tsSxHWKioVlDDUs3cD3j-4" value="" style="endArrow=none;dashed=1;html=1;rounded=0;" parent="1" target="tsSxHWKioVlDDUs3cD3j-3" edge="1">
          <mxGeometry width="50" height="50" relative="1" as="geometry">
            <mxPoint x="320" y="40" as="sourcePoint" />
            <mxPoint x="400" y="350" as="targetPoint" />
          </mxGeometry>
        </mxCell>
        <mxCell id="tsSxHWKioVlDDUs3cD3j-12" value="Sélectionner les livres pour la 2ème sélection" style="ellipse;whiteSpace=wrap;html=1;fillColor=#dae8fc;strokeColor=#6c8ebf;" parent="1" vertex="1">
          <mxGeometry x="482" y="40" width="138" height="80" as="geometry" />
        </mxCell>
        <mxCell id="tsSxHWKioVlDDUs3cD3j-16" value="" style="endArrow=none;html=1;rounded=0;fillColor=#dae8fc;strokeColor=#6c8ebf;" parent="1" target="tsSxHWKioVlDDUs3cD3j-12" edge="1">
          <mxGeometry width="50" height="50" relative="1" as="geometry">
            <mxPoint x="60" y="440" as="sourcePoint" />
            <mxPoint x="400" y="180" as="targetPoint" />
          </mxGeometry>
        </mxCell>
        <mxCell id="nE3ZNeiionHA2tKRMIRd-3" value="Ajouter ou supprimer un élève d&#39;un cours" style="ellipse;whiteSpace=wrap;html=1;fillColor=#dae8fc;strokeColor=#6c8ebf;" parent="1" vertex="1">
          <mxGeometry x="640" y="510" width="230" height="50" as="geometry" />
        </mxCell>
        <mxCell id="nE3ZNeiionHA2tKRMIRd-12" value="&amp;lt;&amp;lt;extend&amp;gt;&amp;gt;" style="html=1;verticalAlign=bottom;labelBackgroundColor=none;endArrow=open;endFill=0;dashed=1;rounded=0;exitX=0;exitY=0.5;exitDx=0;exitDy=0;entryX=1;entryY=0;entryDx=0;entryDy=0;" parent="1" source="nE3ZNeiionHA2tKRMIRd-3" edge="1">
          <mxGeometry width="160" relative="1" as="geometry">
            <mxPoint x="600" y="340" as="sourcePoint" />
            <mxPoint x="466" y="422" as="targetPoint" />
          </mxGeometry>
        </mxCell>
        <mxCell id="nE3ZNeiionHA2tKRMIRd-27" value="_Barre de recherche&lt;br&gt;&lt;span style=&quot;background-color: initial;&quot;&gt;_Liste d&#39;élève&lt;/span&gt;" style="shape=note;whiteSpace=wrap;html=1;backgroundOutline=1;darkOpacity=0.05;fillColor=#e1d5e7;strokeColor=#9673a6;" parent="1" vertex="1">
          <mxGeometry x="721.25" y="-10" width="157.5" height="40" as="geometry" />
        </mxCell>
        <mxCell id="nE3ZNeiionHA2tKRMIRd-30" value="" style="endArrow=none;dashed=1;html=1;rounded=0;entryX=0.833;entryY=0.075;entryDx=0;entryDy=0;entryPerimeter=0;" parent="1" source="nE3ZNeiionHA2tKRMIRd-27" target="tsSxHWKioVlDDUs3cD3j-12" edge="1">
          <mxGeometry width="50" height="50" relative="1" as="geometry">
            <mxPoint x="686.25" y="40" as="sourcePoint" />
            <mxPoint x="637" y="52" as="targetPoint" />
            <Array as="points" />
          </mxGeometry>
        </mxCell>
        <mxCell id="JYffe36kRaPBVMpyf8xv-1" value="" style="endArrow=classic;html=1;rounded=0;" parent="1" edge="1">
          <mxGeometry width="50" height="50" relative="1" as="geometry">
            <mxPoint x="24.52" y="380" as="sourcePoint" />
            <mxPoint x="24.52" y="300" as="targetPoint" />
          </mxGeometry>
        </mxCell>
        <mxCell id="Ld1TQwFkPDW0DGkK1mxV-3" value="" style="endArrow=none;html=1;rounded=0;fillColor=#dae8fc;strokeColor=#6c8ebf;" edge="1" parent="1" target="Ld1TQwFkPDW0DGkK1mxV-4">
          <mxGeometry width="50" height="50" relative="1" as="geometry">
            <mxPoint x="60" y="440" as="sourcePoint" />
            <mxPoint x="512" y="120" as="targetPoint" />
          </mxGeometry>
        </mxCell>
        <mxCell id="Ld1TQwFkPDW0DGkK1mxV-4" value="Sélectionner les livres pour la 3ème sélection" style="ellipse;whiteSpace=wrap;html=1;fillColor=#dae8fc;strokeColor=#6c8ebf;" vertex="1" parent="1">
          <mxGeometry x="520" y="130" width="140" height="80" as="geometry" />
        </mxCell>
        <mxCell id="Ld1TQwFkPDW0DGkK1mxV-5" value="Indiquer le nombre de votes obtenus pour chaque livre lors du dernier tour de scrutin&amp;nbsp;" style="ellipse;whiteSpace=wrap;html=1;fillColor=#dae8fc;strokeColor=#6c8ebf;" vertex="1" parent="1">
          <mxGeometry x="545" y="230" width="150" height="100" as="geometry" />
        </mxCell>
        <mxCell id="Ld1TQwFkPDW0DGkK1mxV-6" value="" style="endArrow=none;html=1;rounded=0;fillColor=#dae8fc;strokeColor=#6c8ebf;" edge="1" parent="1" target="Ld1TQwFkPDW0DGkK1mxV-5">
          <mxGeometry width="50" height="50" relative="1" as="geometry">
            <mxPoint x="60" y="440" as="sourcePoint" />
            <mxPoint x="521" y="243" as="targetPoint" />
          </mxGeometry>
        </mxCell>
        <mxCell id="Ld1TQwFkPDW0DGkK1mxV-9" value="- Titre&lt;br&gt;- Résumé&lt;div&gt;- Auteur&lt;/div&gt;&lt;div&gt;- Personnages principaux&lt;/div&gt;&lt;div&gt;- date de parution&lt;/div&gt;&lt;div&gt;- nombre de pages&lt;/div&gt;&lt;div&gt;- ISBN&lt;/div&gt;&lt;div&gt;- Prix éditeur&lt;/div&gt;&lt;div&gt;- Biographie de l&#39;auteur&lt;/div&gt;" style="shape=note;whiteSpace=wrap;html=1;backgroundOutline=1;darkOpacity=0.05;fillColor=#e1d5e7;strokeColor=#9673a6;" vertex="1" parent="1">
          <mxGeometry x="610" y="-215" width="170" height="140" as="geometry" />
        </mxCell>
        <mxCell id="Ld1TQwFkPDW0DGkK1mxV-10" value="" style="endArrow=none;dashed=1;html=1;rounded=0;entryX=0.928;entryY=0.193;entryDx=0;entryDy=0;entryPerimeter=0;" edge="1" parent="1" target="ytxkbaWUz_GBkNSJb9Mm-7">
          <mxGeometry width="50" height="50" relative="1" as="geometry">
            <mxPoint x="611.5" y="-130" as="sourcePoint" />
            <mxPoint x="472.5" y="-107" as="targetPoint" />
            <Array as="points" />
          </mxGeometry>
        </mxCell>
      </root>
    </mxGraphModel>
  </diagram>
</mxfile>
